<?xml version="1.0" standalone="no"?>
<!DOCTYPE svg PUBLIC "-//W3C//DTD SVG 20010904//EN"
 "http://www.w3.org/TR/2001/REC-SVG-20010904/DTD/svg10.dtd">
<svg version="1.0" xmlns="http://www.w3.org/2000/svg"
 width="512.000000pt" height="512.000000pt" viewBox="0 0 512.000000 512.000000"
 preserveAspectRatio="xMidYMid meet">
<metadata>
Created by potrace 1.16, written by Peter Selinger 2001-2019
</metadata>
<g transform="translate(0.000000,512.000000) scale(0.100000,-0.100000)"
fill="#000000" stroke="none">
<path d="M2315 4780 c-208 -44 -380 -170 -464 -341 -38 -77 -81 -216 -81 -261
0 -17 -16 -18 -305 -18 -282 0 -310 -2 -367 -21 -156 -52 -280 -184 -318 -340
-6 -24 -71 -710 -145 -1524 -141 -1559 -140 -1536 -102 -1641 9 -23 23 -57 33
-75 26 -51 121 -146 178 -178 114 -65 -7 -61 1816 -61 1823 0 1702 -4 1816 61
60 34 154 129 181 184 42 82 56 147 55 240 -1 108 -257 2908 -272 2981 -34
162 -158 299 -318 353 -57 19 -84 21 -367 21 -289 0 -305 1 -305 18 0 45 -43
184 -81 260 -85 174 -256 299 -469 342 -129 27 -358 26 -485 0z m430 -327
c132 -32 221 -116 259 -241 l15 -52 -459 0 -458 0 10 38 c11 39 49 116 70 143
29 35 112 89 161 105 103 32 290 35 402 7z m1149 -623 c22 -5 51 -17 65 -27
59 -45 51 12 191 -1513 71 -783 130 -1449 130 -1480 0 -67 -25 -112 -80 -144
-35 -21 -39 -21 -1640 -21 -1601 0 -1605 0 -1640 21 -55 32 -80 77 -80 144 0
31 59 697 130 1480 105 1143 134 1431 148 1459 20 41 57 70 103 81 48 11 2625
12 2673 0z"/>
<path d="M1832 3340 c-18 -11 -41 -34 -53 -52 -19 -31 -20 -43 -16 -233 6
-240 30 -395 89 -571 55 -167 114 -270 213 -370 138 -138 280 -194 495 -194
215 0 357 56 495 194 100 102 160 206 215 376 58 182 81 327 87 565 4 190 3
202 -16 233 -31 49 -76 72 -142 72 -65 0 -111 -25 -142 -78 -16 -27 -21 -63
-27 -216 -17 -377 -85 -601 -220 -728 -68 -64 -140 -90 -250 -90 -110 0 -182
26 -250 90 -135 127 -203 351 -220 728 -9 203 -16 229 -80 271 -44 30 -131 32
-178 3z"/>
</g>
</svg>
