<?xml version="1.0" standalone="no"?>
<!DOCTYPE svg PUBLIC "-//W3C//DTD SVG 20010904//EN"
 "http://www.w3.org/TR/2001/REC-SVG-20010904/DTD/svg10.dtd">
<svg version="1.0" xmlns="http://www.w3.org/2000/svg"
 width="512.000000pt" height="512.000000pt" viewBox="0 0 512.000000 512.000000"
 preserveAspectRatio="xMidYMid meet">
<metadata>
Created by potrace 1.16, written by Peter Selinger 2001-2019
</metadata>
<g transform="translate(0.000000,512.000000) scale(0.100000,-0.100000)"
fill="#000000" stroke="none">
<path d="M2356 4688 c-240 -21 -506 -96 -733 -207 -439 -216 -768 -545 -984
-984 -514 -1048 -83 -2323 961 -2847 207 -104 415 -170 650 -206 157 -24 461
-24 620 0 710 109 1296 539 1611 1179 367 749 261 1648 -272 2299 -444 542
-1138 829 -1853 766z m1364 -1412 c94 -47 138 -172 94 -268 -14 -30 -171 -180
-678 -646 -364 -333 -674 -613 -690 -623 -43 -26 -101 -33 -154 -19 -43 12
-80 46 -400 364 -204 202 -362 368 -374 390 -29 57 -22 149 16 205 34 48 113
91 168 91 76 0 104 -22 380 -297 243 -243 268 -265 284 -252 10 8 270 245 578
528 335 306 577 521 601 532 55 25 120 24 175 -5z"/>
</g>
</svg>
